<svg xmlns="http://www.w3.org/2000/svg" fill="none" viewBox="0 0 48 48" id="Dvr--Streamline-Sharp-Material-Symbols.svg"><desc>Dvr Streamline Icon: https://streamlinehq.com</desc><path fill="#000000" d="M13.999 27.65c0.4673 0 0.8593 -0.158 1.176 -0.474 0.3167 -0.316 0.475 -0.7077 0.475 -1.175 0 -0.4673 -0.158 -0.8593 -0.474 -1.176 -0.316 -0.3167 -0.7077 -0.475 -1.175 -0.475 -0.4673 0 -0.8593 0.158 -1.176 0.474 -0.3167 0.316 -0.475 0.7077 -0.475 1.175 0 0.4673 0.158 0.8593 0.474 1.176 0.316 0.3167 0.7077 0.475 1.175 0.475Zm0 -8c0.4673 0 0.8593 -0.158 1.176 -0.474 0.3167 -0.316 0.475 -0.7077 0.475 -1.175 0 -0.4673 -0.158 -0.8593 -0.474 -1.176 -0.316 -0.3167 -0.7077 -0.475 -1.175 -0.475 -0.4673 0 -0.8593 0.158 -1.176 0.474 -0.3167 0.316 -0.475 0.7077 -0.475 1.175 0 0.4673 0.158 0.8593 0.474 1.176 0.316 0.3167 0.7077 0.475 1.175 0.475ZM18 27.5h18v-3H18v3Zm0 -8h18v-3H18v3ZM16.5 42v-4H4V6h40v32H31.5v4h-15ZM7 35h34V9H7v26Z" stroke-width="1"></path></svg>