<svg xmlns="http://www.w3.org/2000/svg" fill="none" viewBox="0 0 48 48" id="Train--Streamline-Outlined-Material-Symbols.svg"><desc>Train Streamline Icon: https://streamlinehq.com</desc><path fill="currentColor" d="M8 31V12c0 -1.3667 0.31667 -2.55833 0.95 -3.575s1.6083 -1.85 2.925 -2.5c1.3167 -0.65 2.9833 -1.13333 5 -1.45S21.2667 4 24 4c2.8667 0 5.3083 0.15 7.325 0.45 2.0167 0.3 3.6667 0.775 4.95 1.425S38.5 7.35 39.1 8.35c0.6 1 0.9 2.2167 0.9 3.65v19c0 1.9667 -0.675 3.625 -2.025 4.975C36.625 37.325 34.9667 38 33 38l3 3v1h-3.5l-4 -4h-9l-4 4H12v-1l3 -3c-1.9667 0 -3.625 -0.675 -4.975 -2.025C8.675 34.625 8 32.9667 8 31ZM24 7c-4 0 -6.8833 0.25833 -8.65 0.775 -1.7667 0.51667 -3.0333 1.25833 -3.8 2.225H36.6c-0.6 -0.9 -1.875 -1.625 -3.825 -2.175C30.825 7.275 27.9 7 24 7ZM11 20.75h11.7V13H11v7.75Zm22 3H11h26Zm-7.3 -3H37V13H25.7v7.75Zm-8.95 11.5c0.7667 0 1.4167 -0.2667 1.95 -0.8 0.5333 -0.5333 0.8 -1.1833 0.8 -1.95 0 -0.7667 -0.2667 -1.4167 -0.8 -1.95 -0.5333 -0.5333 -1.1833 -0.8 -1.95 -0.8 -0.7667 0 -1.4167 0.2667 -1.95 0.8 -0.5333 0.5333 -0.8 1.1833 -0.8 1.95 0 0.7667 0.2667 1.4167 0.8 1.95 0.5333 0.5333 1.1833 0.8 1.95 0.8Zm14.5 0c0.7667 0 1.4167 -0.2667 1.95 -0.8 0.5333 -0.5333 0.8 -1.1833 0.8 -1.95 0 -0.7667 -0.2667 -1.4167 -0.8 -1.95 -0.5333 -0.5333 -1.1833 -0.8 -1.95 -0.8 -0.7667 0 -1.4167 0.2667 -1.95 0.8 -0.5333 0.5333 -0.8 1.1833 -0.8 1.95 0 0.7667 0.2667 1.4167 0.8 1.95 0.5333 0.5333 1.1833 0.8 1.95 0.8Zm-16.25 3h18c1.1333 0 2.0833 -0.4167 2.85 -1.25 0.7667 -0.8333 1.15 -1.8333 1.15 -3v-7.25H11V31c0 1.1667 0.3833 2.1667 1.15 3 0.7667 0.8333 1.7167 1.25 2.85 1.25ZM24 10h12.6H24Z" stroke-width="1"></path></svg>