<svg xmlns="http://www.w3.org/2000/svg" fill="none" viewBox="-0.5 -0.5 24 24" stroke-linecap="round" stroke-linejoin="round" stroke="currentColor" id="Train--Streamline-Mynaui.svg"><desc>Train Streamline Icon: https://streamlinehq.com</desc><path d="M15.333333333333334 17.25H7.666666666666667m7.666666666666667 0 1.9166666666666667 2.875m-1.9166666666666667 -2.875a2.875 2.875 0 0 0 2.875 -2.875v-3.8333333333333335M7.666666666666667 17.25l-1.9166666666666667 2.875m1.9166666666666667 -2.875a2.875 2.875 0 0 1 -2.875 -2.875v-3.8333333333333335m2.875 2.875v0.9583333333333334m7.666666666666667 -0.9583333333333334v0.9583333333333334M4.791666666666667 10.541666666666668h6.708333333333334m-6.708333333333334 0V5.75m6.708333333333334 4.791666666666667h6.708333333333334m-6.708333333333334 0V5.75m6.708333333333334 4.791666666666667V5.75m-6.708333333333334 0H4.791666666666667m6.708333333333334 0h6.708333333333334M4.791666666666667 5.75a2.875 2.875 0 0 1 2.875 -2.875h7.666666666666667a2.875 2.875 0 0 1 2.875 2.875" stroke-width="1"></path></svg>